Coordinates
version=1
nRows=22
nColumns=24
inDegrees=yes

Units are S.I. units (second, meters, Newtons, ...)
Angles are in degrees.

endheader
time	pelvis_tilt	pelvis_list	pelvis_rotation	pelvis_tx	pelvis_ty	pelvis_tz	hip_flexion_r	hip_adduction_r	hip_rotation_r	knee_angle_r	ankle_angle_r	subtalar_angle_r	mtp_angle_r	hip_flexion_l	hip_adduction_l	hip_rotation_l	knee_angle_l	ankle_angle_l	subtalar_angle_l	mtp_angle_l	lumbar_extension	lumbar_bending	lumbar_rotation
      0.82916667	      3.83157410	     -5.79483067	      9.06425644	     -0.53698212	      1.03408186	      0.32419200	      4.78091088	     12.03799871	     -2.90094801	    -10.31873805	      2.74165377	    -13.25841226	      3.65563697	     11.61167555	     -9.18106775	      0.76193924	    -67.84527540	     -8.01795833	     -4.23353024	      7.05665701	     -3.62655428	      3.33432673	     -2.84827779
      0.83333333	      3.81691265	     -5.66765950	      9.05247898	     -0.53223904	      1.03467222	      0.32442017	      4.35592520	     11.96194747	     -2.86213675	    -10.07600602	      2.87284354	    -13.15499372	      3.65025447	     12.20186319	     -8.99879088	      0.78606259	    -67.78391054	     -7.03741953	     -4.48189668	      6.92190785	     -3.71622645	      3.17418400	     -2.74491596
      0.83750000	      3.76956037	     -5.52525817	      9.01543486	     -0.52744355	      1.03525108	      0.32464279	      3.95553942	     11.85968714	     -2.81530674	     -9.83136257	      3.06321881	    -12.92985609	      3.43947348	     12.79439860	     -8.78792478	      0.78399432	    -67.65088649	     -6.03209997	     -4.68525696	      3.76954236	     -3.73324357	      2.98181177	     -2.57541506
      0.84166667	      3.75141238	     -5.40085978	      9.00227044	     -0.52269162	      1.03581994	      0.32483631	      3.52633767	     11.78491692	     -2.77340815	     -9.56953394	      3.15793289	    -12.88884143	      3.44021564	     13.35997129	     -8.59512445	      0.80586729	    -67.46703699	     -5.19007683	     -4.99017349	      3.77725784	     -3.79350063	      2.84576852	     -2.51829369
      0.84583333	      3.73576321	     -5.26420578	      8.95015647	     -0.51796518	      1.03639218	      0.32509849	      3.09544652	     11.70024414	     -2.67556585	     -9.32056951	      3.26714116	    -12.80484796	      3.43894778	     13.89391398	     -8.39719261	      0.79060169	    -67.21752300	     -4.31879210	     -5.16339520	      3.76580534	     -3.90615099	      2.67224719	     -2.37218551
      0.85000000	      3.73922163	     -5.12229881	      8.88682206	     -0.51319498	      1.03698952	      0.32535622	      2.62504125	     11.61161394	     -2.57366997	     -9.03873726	      3.38608831	    -12.69801547	      3.43259099	     14.38031736	     -8.19505363	      0.76047722	    -66.89863337	     -3.53685104	     -5.37470110	      3.72150069	     -3.98796240	      2.49506097	     -2.17094009
      0.85416667	      3.72053136	     -4.96967850	      8.80360294	     -0.50846166	      1.03754688	      0.32562491	      2.19363031	     11.50518643	     -2.46723724	     -8.79204164	      3.49364875	    -12.60504095	      3.42553293	     14.87198606	     -7.97196023	      0.71631672	    -66.52025425	     -2.82008899	     -5.64004575	      3.68081989	     -4.08314485	      2.31107822	     -2.02231320
      0.85833333	      3.69210474	     -4.83852802	      8.71977661	     -0.50370229	      1.03805229	      0.32588615	      1.76685919	     11.41888204	     -2.36581512	     -8.52504834	      3.58765975	    -12.51200467	      3.42172332	     15.36372986	     -7.77119628	      0.67256842	    -66.09149656	     -2.15306372	     -5.91868360	      3.66136737	     -4.12413501	      2.15251416	     -1.91875327
      0.86250000	      3.68539714	     -4.68714762	      8.60892797	     -0.49895747	      1.03858262	      0.32618249	      1.31750849	     11.31335285	     -2.23613890	     -8.27214963	      3.69844579	    -12.41678130	      3.41454738	     15.80208132	     -7.55773388	      0.59674116	    -65.59749090	     -1.51090609	     -6.15471752	      3.62774372	     -4.22088126	      1.96407989	     -1.73983688
      0.86666667	      3.69675000	     -4.52636011	      8.47987432	     -0.49425292	      1.03913875	      0.32648935	      0.84334333	     11.19897697	     -2.05897015	     -8.00990004	      3.80611771	    -12.30919616	      3.39882927	     16.19711839	     -7.33049777	      0.52122070	    -65.03621106	     -0.93741174	     -6.37307747	      3.56107352	     -4.36351555	      1.78042521	     -1.45848382
      0.87083333	      3.67518736	     -4.38914219	      8.35370600	     -0.48949918	      1.03959026	      0.32679388	      0.40777115	     11.10192957	     -1.93516970	     -7.74343059	      3.89410363	    -12.21562308	      3.38986759	     16.62121178	     -7.13160349	      0.43429832	    -64.43787645	     -0.38206759	     -6.62947124	      3.52801787	     -4.41100828	      1.60264069	     -1.32453718
      0.87500000	      3.73258658	     -4.23559523	      8.20347018	     -0.48478812	      1.04015674	      0.32711381	     -0.12310523	     10.99705671	     -1.74333018	     -7.46342469	      3.97798037	    -12.11566454	      3.35321772	     16.92505758	     -6.92330283	      0.34029395	    -63.76085856	      0.11401749	     -6.84856852	      3.40581093	     -4.58679028	      1.44755707	     -0.95521707
      0.87916667	      3.74629085	     -4.08656524	      8.04643681	     -0.48008028	      1.04062913	      0.32745084	     -0.59887054	     10.88851734	     -1.55231228	     -7.19852427	      4.08656727	    -12.02338275	      3.32545928	     17.26507848	     -6.71569300	      0.24021388	    -63.03909749	      0.57709537	     -7.06245479	      3.32062320	     -4.70818784	      1.26198629	     -0.75194100
      0.88333333	      3.75510095	     -3.93721949	      7.87378897	     -0.47536015	      1.04107729	      0.32779453	     -1.06589618	     10.77412355	     -1.36531938	     -6.94149822	      4.17343513	    -11.92667180	      3.29119509	     17.58580810	     -6.50768583	      0.13117891	    -62.25782510	      1.01731240	     -7.28653760	      3.22775424	     -4.81643302	      1.08836222	     -0.50423598
      0.88750000	      3.77226230	     -3.78289096	      7.68276358	     -0.47066646	      1.04151868	      0.32815315	     -1.53032950	     10.65004820	     -1.17511300	     -6.70854302	      4.26780108	    -11.83108922	      3.26825225	     17.87398713	     -6.29854321	      0.00726648	    -61.41793905	      1.44220720	     -7.48779697	      3.17067726	     -4.94945008	      0.91486374	     -0.31855941
      0.89166667	      3.79413956	     -3.63760150	      7.48985275	     -0.46597186	      1.04192421	      0.32851379	     -2.00453957	     10.53399676	     -0.97531948	     -6.46084671	      4.36057902	    -11.72967251	      3.24409339	     18.14214376	     -6.10009595	     -0.11370198	    -60.52877471	      1.83429047	     -7.68543065	      3.11531452	     -5.07843757	      0.74291125	     -0.08981451
      0.89583333	      3.82780301	     -3.51810897	      7.30288925	     -0.46126744	      1.04230033	      0.32886046	     -2.50004032	     10.44451072	     -0.76702458	     -6.18405566	      4.44137064	    -11.62573409	      3.20096387	     18.38829536	     -5.93064308	     -0.21973284	    -59.59644079	      2.18111470	     -7.87564795	      3.02713127	     -5.20067877	      0.60808755	      0.23382277
      0.90000000	      3.84261143	     -3.39019335	      7.09668762	     -0.45656596	      1.04263259	      0.32922721	     -2.96149454	     10.33830571	     -0.56177277	     -5.94007811	      4.53908944	    -11.52505375	      3.16270064	     18.62782807	     -5.75318420	     -0.34307109	    -58.60339727	      2.51689770	     -8.04631259	      2.95413434	     -5.30062593	      0.45853610	      0.46783426
      0.90416667	      3.86269852	     -3.26036551	      6.88453419	     -0.45188249	      1.04294252	      0.32958921	     -3.42534680	     10.22554036	     -0.34850288	     -5.70075522	      4.62251354	    -11.41466081	      3.11410265	     18.84088311	     -5.56976239	     -0.45812347	    -57.55573998	      2.82505999	     -8.23314543	      2.86776270	     -5.42851430	      0.30859067	      0.74312200
      0.90833333	      3.84725111	     -3.14758264	      6.66514405	     -0.44718129	      1.04315832	      0.32995831	     -3.84471979	     10.12357272	     -0.12993599	     -5.46844572	      4.70256036	    -11.33694510	      2.95142780	     19.07691497	     -5.40494530	     -0.57591972	    -56.46359625	      3.12120067	     -8.38013908	      2.60774028	     -5.48393163	      0.16776030	      1.08990565
      0.91250000	      3.87814201	     -3.03000117	      6.45004971	     -0.44247935	      1.04342176	      0.33030258	     -4.31687248	     10.01648003	      0.07203164	     -5.23206846	      4.82257062	    -11.20454075	      2.91554263	     19.23704294	     -5.23765933	     -0.68924396	    -55.30594907	      3.35478670	     -8.55828810	      2.54636144	     -5.61074146	      0.04163923	      1.24020356
      0.91666667	      3.90699521	     -2.91816594	      6.22995975	     -0.43777967	      1.04365146	      0.33064399	     -4.78281944	      9.91071924	      0.27515610	     -4.99871937	      4.92475590	    -11.07751990	      2.87380849	     19.37877650	     -5.07492731	     -0.79698912	    -54.09634163	      3.56525026	     -8.73410363	      2.47837921	     -5.73099788	     -0.08459117	      1.48953312
